<svg width="442" height="353" viewBox="0 0 442 353" fill="none" xmlns="http://www.w3.org/2000/svg">
<g clip-path="url(#clip0_50_1549)">
<path d="M435.236 276.789C428.44 265.044 417.461 256.626 404.358 253.136C391.222 249.612 377.532 251.439 365.768 258.192C363.677 259.4 361.684 260.737 359.821 262.205C359.658 262.336 359.527 262.434 359.364 262.532C347.176 272.254 340.445 286.902 340.347 301.877C340.347 302.073 340.347 302.236 340.347 302.432C340.38 310.979 342.569 319.625 347.143 327.553C353.94 339.298 364.919 347.715 378.022 351.206C382.4 352.38 386.844 352.967 391.255 352.967C400.078 352.967 408.769 350.651 416.611 346.149C418.506 345.072 420.271 343.832 421.97 342.527C422.133 342.43 422.264 342.299 422.427 342.169C431.152 335.415 437.425 326.117 440.334 315.286C441.477 311.045 442 306.705 442.033 302.432C442.033 302.236 442.033 302.073 442.033 301.877C442 293.134 439.745 284.521 435.236 276.756V276.789Z" fill="url(#paint0_linear_50_1549)"/>
<path d="M361.128 193.008C360.965 188.995 360.246 185.211 358.939 181.687C358.089 179.436 357.044 177.283 355.737 175.293C355.443 174.901 355.181 174.477 354.887 174.086C354.626 173.727 354.397 173.368 354.136 173.009L258.887 51.0578L258.462 50.5031L255.227 46.3598L254.868 45.8704L234.479 19.7706C232.975 17.8131 231.342 16.084 229.643 14.4528L227.747 12.6258L225.983 11.2555C224.055 9.72217 222.029 8.31931 219.938 7.11219C219.873 7.11219 219.84 7.04694 219.775 7.01431C219.611 6.91644 219.448 6.81856 219.284 6.72069C219.121 6.62282 218.925 6.55757 218.762 6.45969C218.075 6.10082 217.389 5.77457 216.703 5.44832C215.429 4.82845 214.154 4.24121 212.88 3.71921C202.718 -0.358885 191.576 -1.14188 180.793 1.76173C177.395 2.67522 174.127 3.94759 171.056 5.48095C169.977 6.03557 168.899 6.62282 167.886 7.24269C166.187 8.25406 164.52 9.33067 162.952 10.5378C162.789 10.6683 162.658 10.7988 162.527 10.8967C160.992 12.1038 159.521 13.4414 158.116 14.8443C157.234 15.7251 156.352 16.606 155.535 17.5847L154.881 18.3677L154.456 18.955C154.13 19.3465 154.358 19.0855 154.032 19.477C153.411 20.26 152.823 21.0756 152.267 21.8586C151.45 23.0005 150.666 24.1749 149.947 25.4147C149.228 26.6544 148.608 27.9268 148.019 29.1992L135.57 50.2748L135.439 50.5358L135.113 51.0904L133.217 54.3529L132.923 54.8749L4.44377 276.821L4.31307 277.05C2.6793 279.986 1.47031 283.15 0.784128 286.478C0.0325945 290.067 -0.196133 293.884 0.228647 297.799C0.359348 299.169 0.588076 300.539 0.882155 301.877C0.91483 302.073 0.947505 302.268 1.01286 302.432C4.08434 316.428 14.3444 329.119 27.8393 337.047C28.0027 337.144 28.1661 337.242 28.3295 337.34C35.7795 341.647 44.2097 344.518 52.934 345.301C54.5678 345.464 56.2016 345.529 57.8354 345.529C69.043 345.529 79.1724 341.875 86.361 335.252C86.7531 334.893 87.1452 334.567 87.5046 334.208C89.2691 332.414 90.8048 330.489 92.0792 328.401C92.2099 328.205 92.3079 328.009 92.4059 327.814L107.11 302.432L107.437 301.877L200.333 141.233L273.787 235.225L273.95 235.453C273.95 235.453 274.212 235.747 274.277 235.844C274.408 236.008 274.702 236.432 274.833 236.595C276.368 238.389 277.839 239.662 279.767 241.13C280.126 241.423 280.551 241.652 280.91 241.945C287.282 246.415 295.255 248.731 303.816 248.731C307.639 248.731 311.56 248.275 315.513 247.361C324.042 245.371 331.949 241.391 338.713 236.138C338.876 236.008 339.007 235.91 339.138 235.779C352.796 224.98 361.684 208.896 361.096 193.008H361.128Z" fill="url(#paint1_linear_50_1549)"/>
</g>
<defs>
<linearGradient id="paint0_linear_50_1549" x1="340.314" y1="302.171" x2="442" y2="302.171" gradientUnits="userSpaceOnUse">
<stop stop-color="#FF3387"/>
<stop offset="0.64" stop-color="#FF002D"/>
<stop offset="0.71" stop-color="#F6002D"/>
<stop offset="0.83" stop-color="#DF002D"/>
<stop offset="0.98" stop-color="#B9002D"/>
<stop offset="1" stop-color="#B5002D"/>
</linearGradient>
<linearGradient id="paint1_linear_50_1549" x1="-8.08782e-05" y1="172.781" x2="361.128" y2="172.781" gradientUnits="userSpaceOnUse">
<stop stop-color="#FF3387"/>
<stop offset="0.64" stop-color="#FF002D"/>
<stop offset="0.71" stop-color="#F6002D"/>
<stop offset="0.83" stop-color="#DF002D"/>
<stop offset="0.98" stop-color="#B9002D"/>
<stop offset="1" stop-color="#B5002D"/>
</linearGradient>
<clipPath id="clip0_50_1549">
<rect width="442" height="353" fill="white"/>
</clipPath>
</defs>
</svg>
