<svg width="98" height="98" viewBox="0 0 98 98" fill="none" xmlns="http://www.w3.org/2000/svg">
<mask id="path-1-inside-1_830_4538" fill="white">
<path d="M49 0C39.3087 -1.15567e-07 29.8351 2.8738 21.7771 8.25799C13.7191 13.6422 7.4386 21.2949 3.7299 30.2485C0.021209 39.2021 -0.949155 49.0544 0.941521 58.5594C2.8322 68.0645 7.49899 76.7955 14.3518 83.6482C21.2045 90.501 29.9355 95.1678 39.4406 97.0585C48.9456 98.9492 58.7979 97.9788 67.7515 94.2701C76.7051 90.5614 84.3578 84.281 89.742 76.2229C95.1262 68.1649 98 58.6913 98 49H89.4533C89.4533 57.0009 87.0807 64.8221 82.6357 71.4746C78.1906 78.1272 71.8727 83.3121 64.4808 86.374C57.0889 89.4358 48.9551 90.2369 41.108 88.676C33.2608 87.1151 26.0527 83.2623 20.3952 77.6048C14.7377 71.9473 10.8849 64.7392 9.32401 56.892C7.76311 49.0449 8.56422 40.9111 11.626 33.5192C14.6879 26.1273 19.8729 19.8094 26.5254 15.3643C33.1779 10.9193 40.9991 8.54671 49 8.54671V0Z"/>
</mask>
<path d="M49 0C39.3087 -1.15567e-07 29.8351 2.8738 21.7771 8.25799C13.7191 13.6422 7.4386 21.2949 3.7299 30.2485C0.021209 39.2021 -0.949155 49.0544 0.941521 58.5594C2.8322 68.0645 7.49899 76.7955 14.3518 83.6482C21.2045 90.501 29.9355 95.1678 39.4406 97.0585C48.9456 98.9492 58.7979 97.9788 67.7515 94.2701C76.7051 90.5614 84.3578 84.281 89.742 76.2229C95.1262 68.1649 98 58.6913 98 49H89.4533C89.4533 57.0009 87.0807 64.8221 82.6357 71.4746C78.1906 78.1272 71.8727 83.3121 64.4808 86.374C57.0889 89.4358 48.9551 90.2369 41.108 88.676C33.2608 87.1151 26.0527 83.2623 20.3952 77.6048C14.7377 71.9473 10.8849 64.7392 9.32401 56.892C7.76311 49.0449 8.56422 40.9111 11.626 33.5192C14.6879 26.1273 19.8729 19.8094 26.5254 15.3643C33.1779 10.9193 40.9991 8.54671 49 8.54671V0Z" stroke="#ff79ab" stroke-width="20" mask="url(#path-1-inside-1_830_4538)"/>
</svg>
