<svg width="20" height="22" viewBox="0 0 20 22" fill="none" xmlns="http://www.w3.org/2000/svg">
<path d="M17.7486 8.83757L4.75407 1.33724C4.37292 1.11654 3.93984 1.00018 3.49886 1C3.05789 0.99982 2.62472 1.11582 2.24339 1.33622C1.86205 1.55661 1.54614 1.87354 1.32777 2.2548C1.1094 2.63606 0.996341 3.06805 1.00009 3.50688V18.5075C0.998901 18.9452 1.11383 19.3753 1.33325 19.7546C1.55266 20.1338 1.8688 20.4487 2.2497 20.6674C2.6306 20.8861 3.06276 21.0008 3.5025 21C3.94224 20.9992 4.37398 20.8829 4.75407 20.6628L17.7486 13.1625C18.1292 12.9427 18.4452 12.6272 18.6648 12.2477C18.8844 11.8682 19 11.438 19 11C19 10.5621 18.8844 10.1318 18.6648 9.75231C18.4452 9.3728 18.1292 9.05736 17.7486 8.83757V8.83757Z" stroke="#ff79ab" stroke-width="1.5" stroke-linecap="round" stroke-linejoin="round"/>
</svg>
