<svg width="52" height="52" viewBox="0 0 52 52" fill="none" xmlns="http://www.w3.org/2000/svg">
<path d="M33.5833 30.3333H31.8717L31.265 29.7483C33.3883 27.2783 34.6667 24.0717 34.6667 20.5833C34.6667 12.805 28.3617 6.5 20.5833 6.5C12.805 6.5 6.5 12.805 6.5 20.5833C6.5 28.3617 12.805 34.6667 20.5833 34.6667C24.0717 34.6667 27.2783 33.3883 29.7483 31.265L30.3333 31.8717V33.5833L41.1667 44.395L44.395 41.1667L33.5833 30.3333ZM20.5833 30.3333C15.1883 30.3333 10.8333 25.9783 10.8333 20.5833C10.8333 15.1883 15.1883 10.8333 20.5833 10.8333C25.9783 10.8333 30.3333 15.1883 30.3333 20.5833C30.3333 25.9783 25.9783 30.3333 20.5833 30.3333Z" fill="#616161"/>
</svg>
