<?xml version="1.0" encoding="UTF-8"?><svg xmlns="http://www.w3.org/2000/svg" viewBox="0 0 410.8 103.61"><defs><style>.e{fill:none;}.f{fill:#ee216e;}</style></defs><g id="a"/><g id="b"><g id="c"><g id="d"><path class="f" d="M98.79,54.86c-1.24-2.15-3.25-3.69-5.65-4.33s-4.91-.31-7.06,.93c-.38,.22-.74,.47-1.08,.73-.03,.02-.06,.04-.08,.06-2.23,1.78-3.46,4.46-3.48,7.21v.1c0,1.57,.4,3.15,1.24,4.6,1.24,2.15,3.25,3.69,5.65,4.33,.8,.21,1.61,.32,2.42,.32,1.61,0,3.2-.42,4.64-1.25,.35-.2,.67-.42,.98-.66,.03-.02,.05-.04,.08-.06,1.59-1.24,2.74-2.94,3.27-4.92,.21-.78,.3-1.57,.31-2.36v-.1c0-1.6-.42-3.18-1.24-4.6Z"/><path class="e" d="M142.38,24.5h37.43c4.68,0,7.27-2.23,7.88-5.12,.62-2.9-1.03-5.12-5.71-5.12h-37.43c-4.68,0-7.27,2.23-7.89,5.12-.62,2.9,1.03,5.12,5.71,5.12h.01Z"/><polygon class="f" points="0 102.48 94.69 102.48 97.77 88 3.08 88 0 102.48"/><polygon class="f" points="204.22 44.33 109.53 44.33 106.45 58.81 201.14 58.81 204.22 44.33"/><polygon class="f" points="107.48 79.08 172.99 79.08 168.06 102.25 186.55 102.25 194.61 64.38 110.61 64.38 107.48 79.08"/><path class="f" d="M210.82,93.9h49.58l3.18-14.93h-38.66l5.5-25.84h29.52l3.08-14.48h-29.52l4.86-22.84h32.86l3.18-14.93h-43.89c-5.24,0-7.94,2.23-9.05,7.46l-16.62,78.15c-.81,3.81,2.1,7.4,5.99,7.4h0Z"/><path class="f" d="M306.71,.32h-18.49l-7.84,36.87h-12.59l-3.41,16.04h12.59l-10.85,50.38c6.2-.87,12.66-1.9,19.28-3.07L306.71,.32Z"/><path class="f" d="M364.74,77.86h-40.88l13.2-62.05h37.32l3.18-14.93h-48.35c-5.24,0-7.94,2.23-9.05,7.46l-16.24,76.37c-.88,4.16,2.29,8.07,6.54,8.07h13.1c14.09-3.23,27.87-6.78,40.22-10.38l.97-4.55h-.01Z"/><path class="f" d="M389.74,73.98l-1.67,7.84c10.12-7.03,17.83-13.44,22.73-17.97-3.7,2.98-11.14,6.46-21.07,10.13h.01Z"/><path class="f" d="M364.92,102.36h18.49l4.66-20.53c-6.23,4.33-13.38,8.9-21.34,13.4l-1.81,7.13Z"/><path class="f" d="M405.41,.32h-18.49l-17.07,80.28c7.33-2.23,14.05-4.46,19.9-6.62L405.41,.32Z"/><path class="f" d="M80.77,1.44h-26.96c-13.03,0-17.21,3.9-22.05,13.59L7.02,68.82c3.68-.12,10.82-1.41,20.39-3.71L48.08,19.48c1.14-2.23,2.65-3.56,5.99-3.56h20.27c3.34,0,4.28,1.34,4.48,3.56l1.68,29.91c5.94-2.02,12.05-4.18,18.24-6.47l-1.71-27.9c-.72-9.69-3.24-13.59-16.27-13.59h.01Z"/><path class="f" d="M190.41,.07h-.02c-.77-.04-1.56-.07-2.36-.07h-43.45c-13.03,0-23.75,6.91-26.4,19.38-1.37,6.43,.04,11.38,3.51,14.67h.02c3.26,3.07,8.32,4.7,14.63,4.7h43.45c13.03,0,23.75-6.91,26.4-19.38,2.49-11.7-4.19-18.5-15.78-19.3Zm-2.71,19.3c-.62,2.9-3.21,5.12-7.89,5.12h-35.93l-.05,.02h-1.45c-4.68-.01-6.32-2.24-5.71-5.13,.62-2.9,3.21-5.12,7.89-5.12h37.43c4.68-.01,6.32,2.22,5.71,5.11Z"/></g></g></g></svg>